{"title":"Ironclad 2011 DVDrip English Klam","uid":6684229,"size":1892502769,"categoryP":"video","categoryS":"movies","magnet":"?xt=urn:btih:ef151c8b6313a6e4054c2154f075824032eb69d5&amp;dn=Ironclad+2011+DVDrip+English+Klam&amp;tr=udp%3A%2F%2Ftracker.openbittorrent.com%3A80&amp;tr=udp%3A%2F%2Fopen.demonii.com%3A1337&amp;tr=udp%3A%2F%2Ftracker.coppersurfer.tk%3A6969&amp;tr=udp%3A%2F%2Fexodus.desync.com%3A6969","seeders":0,"leechers":0,"uploader":"Klambake","files":-1,"time":1316341670,"description":"With: James Purefoy, Paul Giamatti and Kate Mara\n\nDe rebelse Engelse baronnen in 1215 dwingen Koning John ertoe om zijn koninklijk zegel op de Magna Carta te plaatsen. Later herroept hij deze belofte en vormt een leger aan de zuidkust van Engeland. Met dit leger moet het kasteel 'Rochester Castle' heroverd worden.\n\nIn 13th-century England, a small group of Knights Templar fight to defend Rochester Castle against the tyrannical King John. \n\n------------------ Dutch Friends ------------------\nYou can find my Friends at: http://www.Film-Test.nl \n------ They got my dutchs subs ---- and more ------\n\nGeneral:\n\nComplete name                    : Ironclad\\Ironclad.avi\nFormat                           : AVI\nFormat/Info                      : Audio Video Interleave\nFile size                        : 1.76 GiB\nDuration                         : 1h 55mn\nOverall bit rate                 : 2 179 Kbps\n\nVideo:\n\nFormat                           : MPEG-4 Visual\nFormat profile                   : Simple@L3\nFormat settings, BVOP            : No\nFormat settings, QPel            : No\nFormat settings, GMC             : No warppoints\nFormat settings, Matrix          : Default (H.263)\nCodec ID                         : XVID\nCodec ID/Hint                    : XviD\nDuration                         : 1h 55mn\nBit rate                         : 1 720 Kbps\nWidth                            : 704 pixels\nHeight                           : 396 pixels\nDisplay aspect ratio             : 16:9\nFrame rate                       : 25.000 fps\nColor space                      : YUV\nChroma subsampling               : 4:2:0\nBit depth                        : 8 bits\nScan type                        : Progressive\nBits/(Pixel*Frame)               : 0.247\nStream size                      : 1.39 GiB (79%)\nWriting library                  : XviD 1.1.2 (UTC 2006-11-01)\n\nAudio:\n\nFormat                           : AC-3\nFormat/Info                      : Audio Coding 3\nMode extension                   : CM (complete main)\nCodec ID                         : 2000\nDuration                         : 1h 55mn\nBit rate mode                    : Constant\nBit rate                         : 448 Kbps\nChannel(s)                       : 6 channels\nChannel positions                : Front: L C R, Side: L R, LFE\nSampling rate                    : 48.0 KHz\nBit depth                        : 16 bits\nStream size                      : 371 MiB (21%)\nAlignment                        : Aligned on interleaves\nInterleave, duration             : 32 ms (0.80 video frame)\nInterleave, preload duration     : 128 ms\n\n","torrent":{"xt":"urn:btih:ef151c8b6313a6e4054c2154f075824032eb69d5","amp;dn":"Ironclad+2011+DVDrip+English+Klam","amp;tr":["udp%3A%2F%2Ftracker.openbittorrent.com%3A80","udp%3A%2F%2Fopen.demonii.com%3A1337","udp%3A%2F%2Ftracker.coppersurfer.tk%3A6969","udp%3A%2F%2Fexodus.desync.com%3A6969"],"infoHash":"ef151c8b6313a6e4054c2154f075824032eb69d5","infoHashBuffer":{"type":"Buffer","data":[239,21,28,139,99,19,166,228,5,76,33,84,240,117,130,64,50,235,105,213]},"announce":[],"urlList":[]}}